<svg xmlns="http://www.w3.org/2000/svg" xmlns:xlink="http://www.w3.org/1999/xlink" width="500" zoomAndPan="magnify" viewBox="0 0 375 374.999991" height="500" preserveAspectRatio="xMidYMid meet" version="1.0"><defs><g/><clipPath id="582b43cb7f"><path d="M 14.972656 17.085938 L 355.800781 17.085938 L 355.800781 357.914062 L 14.972656 357.914062 Z M 14.972656 17.085938 " clip-rule="nonzero"/></clipPath><clipPath id="c76c55aa26"><path d="M 185.386719 17.085938 C 91.269531 17.085938 14.972656 93.382812 14.972656 187.5 C 14.972656 281.617188 91.269531 357.914062 185.386719 357.914062 C 279.503906 357.914062 355.800781 281.617188 355.800781 187.5 C 355.800781 93.382812 279.503906 17.085938 185.386719 17.085938 Z M 185.386719 17.085938 " clip-rule="nonzero"/></clipPath><clipPath id="90798c227e"><path d="M 14.972656 17.085938 L 355.472656 17.085938 L 355.472656 357.585938 L 14.972656 357.585938 Z M 14.972656 17.085938 " clip-rule="nonzero"/></clipPath><clipPath id="85f46566ef"><path d="M 185.378906 17.085938 C 91.265625 17.085938 14.972656 93.378906 14.972656 187.496094 C 14.972656 281.609375 91.265625 357.902344 185.378906 357.902344 C 279.492188 357.902344 355.789062 281.609375 355.789062 187.496094 C 355.789062 93.378906 279.492188 17.085938 185.378906 17.085938 Z M 185.378906 17.085938 " clip-rule="nonzero"/></clipPath></defs><g clip-path="url(#582b43cb7f)"><g clip-path="url(#c76c55aa26)"><path fill="#2c3e50" d="M 14.972656 17.085938 L 355.800781 17.085938 L 355.800781 357.914062 L 14.972656 357.914062 Z M 14.972656 17.085938 " fill-opacity="1" fill-rule="nonzero"/></g></g><g clip-path="url(#90798c227e)"><g clip-path="url(#85f46566ef)"><path fill="#ffffff" d="M 159.757812 22.792969 C 152.492188 23.914062 145.34375 25.507812 138.308594 27.574219 L 136.195312 20.378906 C 143.550781 18.21875 151.023438 16.550781 158.613281 15.382812 Z M 134.808594 28.644531 C 127.808594 30.871094 120.984375 33.554688 114.332031 36.695312 L 111.132812 29.910156 C 118.082031 26.628906 125.21875 23.824219 132.535156 21.5 Z M 111.03125 38.296875 C 104.46875 41.574219 98.144531 45.273438 92.054688 49.394531 L 87.851562 43.183594 C 94.210938 38.878906 100.824219 35.011719 107.683594 31.585938 Z M 89.039062 51.488281 C 83.046875 55.738281 77.359375 60.367188 71.972656 65.371094 L 66.867188 59.875 C 72.496094 54.648438 78.4375 49.8125 84.695312 45.371094 Z M 69.3125 67.894531 C 64.039062 73.015625 59.125 78.457031 54.570312 84.21875 L 48.6875 79.566406 C 53.445312 73.546875 58.582031 67.863281 64.089844 62.515625 Z M 52.324219 87.121094 C 47.890625 92.988281 43.867188 99.117188 40.25 105.507812 L 33.722656 101.8125 C 37.503906 95.136719 41.710938 88.730469 46.34375 82.597656 Z M 38.476562 108.722656 C 34.996094 115.195312 31.964844 121.863281 29.375 128.726562 L 22.359375 126.082031 C 25.0625 118.90625 28.234375 111.9375 31.867188 105.171875 Z M 28.121094 132.175781 C 25.683594 139.109375 23.714844 146.175781 22.214844 153.378906 L 14.875 151.851562 C 16.4375 144.320312 18.496094 136.933594 21.046875 129.6875 Z M 21.511719 156.960938 C 20.179688 164.160156 19.324219 171.433594 18.945312 178.785156 L 11.453125 178.398438 C 11.851562 170.71875 12.746094 163.117188 14.136719 155.59375 Z M 18.796875 182.457031 C 18.746094 184.136719 18.722656 185.8125 18.722656 187.496094 C 18.722656 193.191406 19.007812 198.855469 19.578125 204.488281 L 12.113281 205.242188 C 11.519531 199.359375 11.222656 193.441406 11.222656 187.496094 C 11.222656 185.738281 11.246094 183.988281 11.300781 182.234375 Z M 19.988281 208.160156 C 20.894531 215.460938 22.273438 222.664062 24.128906 229.765625 L 16.871094 231.660156 C 14.933594 224.238281 13.488281 216.710938 12.546875 209.078125 Z M 25.09375 233.296875 C 27.105469 240.355469 29.578125 247.25 32.511719 253.984375 L 25.636719 256.980469 C 22.570312 249.941406 19.984375 242.730469 17.878906 235.351562 Z M 34.019531 257.339844 C 37.097656 264 40.605469 270.4375 44.546875 276.644531 L 38.210938 280.664062 C 34.097656 274.175781 30.429688 267.449219 27.210938 260.484375 Z M 46.542969 279.71875 C 50.609375 285.832031 55.066406 291.65625 59.910156 297.1875 L 54.265625 302.128906 C 49.207031 296.347656 44.550781 290.261719 40.296875 283.875 Z M 62.355469 299.925781 C 67.316406 305.347656 72.609375 310.421875 78.234375 315.148438 L 73.410156 320.890625 C 67.53125 315.953125 62.003906 310.652344 56.820312 304.984375 Z M 81.066406 317.476562 C 86.796875 322.085938 92.800781 326.289062 99.078125 330.097656 L 95.1875 336.507812 C 88.632812 332.53125 82.359375 328.136719 76.371094 323.324219 Z M 102.238281 331.964844 C 108.609375 335.640625 115.1875 338.875 121.976562 341.667969 L 119.121094 348.605469 C 112.027344 345.683594 105.148438 342.304688 98.492188 338.460938 Z M 125.375 343.023438 C 132.226562 345.671875 139.226562 347.847656 146.367188 349.5625 L 144.617188 356.855469 C 137.152344 355.066406 129.835938 352.785156 122.675781 350.023438 Z M 149.957031 350.382812 C 157.117188 351.929688 164.367188 353.003906 171.699219 353.597656 L 171.09375 361.074219 C 163.429688 360.453125 155.855469 359.332031 148.371094 357.710938 Z M 175.347656 353.855469 C 178.679688 354.054688 182.027344 354.152344 185.378906 354.152344 C 189.410156 354.152344 193.429688 354.007812 197.433594 353.722656 L 197.96875 361.203125 C 193.785156 361.503906 189.589844 361.652344 185.378906 361.652344 C 181.878906 361.652344 178.382812 361.550781 174.902344 361.34375 Z M 201.066406 353.425781 C 208.398438 352.738281 215.640625 351.578125 222.792969 349.9375 L 224.46875 357.246094 C 216.992188 358.960938 209.425781 360.175781 201.761719 360.890625 Z M 226.363281 349.078125 C 233.480469 347.277344 240.449219 345.011719 247.269531 342.285156 L 250.054688 349.246094 C 242.925781 352.097656 235.644531 354.464844 228.203125 356.347656 Z M 250.648438 340.886719 C 257.402344 338.007812 263.945312 334.695312 270.273438 330.941406 L 274.101562 337.390625 C 267.488281 341.3125 260.648438 344.777344 253.589844 347.789062 Z M 273.410156 329.035156 C 279.636719 325.152344 285.589844 320.875 291.265625 316.199219 L 296.035156 321.988281 C 290.105469 326.871094 283.886719 331.34375 277.375 335.398438 Z M 294.074219 313.835938 C 299.640625 309.039062 304.871094 303.902344 309.765625 298.417969 L 315.359375 303.410156 C 310.246094 309.140625 304.785156 314.507812 298.964844 319.519531 Z M 312.175781 295.652344 C 316.953125 290.0625 321.335938 284.1875 325.328125 278.023438 L 331.621094 282.105469 C 327.449219 288.542969 322.871094 294.679688 317.878906 300.523438 Z M 327.289062 274.925781 C 331.152344 268.667969 334.585938 262.191406 337.582031 255.488281 L 344.429688 258.550781 C 341.296875 265.554688 337.710938 272.328125 333.671875 278.867188 Z M 339.046875 252.117188 C 341.894531 245.351562 344.285156 238.425781 346.210938 231.347656 L 353.445312 233.3125 C 351.433594 240.714844 348.9375 247.953125 345.960938 255.027344 Z M 347.132812 227.796875 C 348.902344 220.671875 350.195312 213.449219 351.007812 206.132812 L 358.460938 206.960938 C 357.609375 214.609375 356.261719 222.15625 354.410156 229.605469 Z M 351.371094 202.488281 C 351.816406 197.511719 352.039062 192.515625 352.039062 187.496094 C 352.039062 185.132812 351.988281 182.777344 351.890625 180.421875 L 359.382812 180.109375 C 359.488281 182.566406 359.539062 185.027344 359.539062 187.496094 C 359.539062 192.738281 359.304688 197.957031 358.84375 203.152344 Z M 351.699219 176.761719 C 351.230469 169.421875 350.289062 162.160156 348.867188 154.980469 L 356.226562 153.523438 C 357.710938 161.027344 358.695312 168.617188 359.183594 176.285156 Z M 348.117188 151.382812 C 346.53125 144.203125 344.476562 137.164062 341.953125 130.265625 L 348.996094 127.6875 C 351.632812 134.902344 353.78125 142.261719 355.4375 149.765625 Z M 340.65625 126.835938 C 337.984375 120.003906 334.871094 113.371094 331.3125 106.9375 L 337.875 103.308594 C 341.59375 110.03125 344.847656 116.964844 347.640625 124.105469 Z M 329.5 103.746094 C 325.804688 97.402344 321.703125 91.324219 317.199219 85.507812 L 323.128906 80.914062 C 327.835938 86.988281 332.117188 93.339844 335.980469 99.96875 Z M 314.921875 82.636719 C 310.296875 76.929688 305.316406 71.546875 299.980469 66.492188 L 305.140625 61.046875 C 310.714844 66.328125 315.917969 71.949219 320.75 77.914062 Z M 297.289062 63.996094 C 291.84375 59.058594 286.097656 54.5 280.058594 50.324219 L 284.324219 44.152344 C 290.636719 48.519531 296.636719 53.28125 302.328125 58.441406 Z M 277.019531 48.269531 C 270.882812 44.222656 264.511719 40.597656 257.90625 37.402344 L 261.175781 30.652344 C 268.078125 33.992188 274.734375 37.777344 281.148438 42.007812 Z M 254.585938 35.839844 C 247.898438 32.78125 241.039062 30.183594 234.011719 28.042969 L 236.199219 20.867188 C 243.542969 23.105469 250.710938 25.824219 257.703125 29.019531 Z M 230.507812 27.015625 C 223.445312 25.035156 216.273438 23.527344 208.996094 22.496094 L 210.046875 15.070312 C 217.65625 16.148438 225.152344 17.722656 232.535156 19.796875 Z M 205.34375 22.019531 C 198.734375 21.230469 192.082031 20.835938 185.378906 20.835938 C 177.992188 20.835938 170.664062 21.316406 163.394531 22.273438 L 162.414062 14.835938 C 170.007812 13.835938 177.664062 13.335938 185.378906 13.335938 C 192.378906 13.335938 199.328125 13.75 206.230469 14.570312 Z M 205.34375 22.019531 " fill-opacity="1" fill-rule="nonzero"/></g></g><g fill="#ffffff" fill-opacity="1"><g transform="translate(96.29063, 176.236862)"><g><path d="M 44.546875 1.671875 C 36.472656 1.671875 29.378906 -0.03125 23.265625 -3.4375 C 17.160156 -6.84375 12.382812 -11.597656 8.9375 -17.703125 C 5.5 -23.816406 3.78125 -30.875 3.78125 -38.875 C 3.78125 -46.875 5.484375 -53.925781 8.890625 -60.03125 C 12.296875 -66.144531 17.050781 -70.90625 23.15625 -74.3125 C 29.269531 -77.71875 36.320312 -79.421875 44.3125 -79.421875 C 51.28125 -79.421875 57.578125 -78.085938 63.203125 -75.421875 C 68.828125 -72.753906 73.546875 -69.015625 77.359375 -64.203125 C 81.179688 -59.390625 83.753906 -53.6875 85.078125 -47.09375 L 62.421875 -47.09375 C 61.242188 -50.570312 59.097656 -53.367188 55.984375 -55.484375 C 52.867188 -57.597656 49.273438 -58.65625 45.203125 -58.65625 C 41.578125 -58.65625 38.359375 -57.820312 35.546875 -56.15625 C 32.734375 -54.488281 30.53125 -52.171875 28.9375 -49.203125 C 27.34375 -46.242188 26.546875 -42.800781 26.546875 -38.875 C 26.546875 -35.019531 27.320312 -31.59375 28.875 -28.59375 C 30.4375 -25.601562 32.601562 -23.273438 35.375 -21.609375 C 38.15625 -19.941406 41.359375 -19.109375 44.984375 -19.109375 C 49.203125 -19.109375 52.867188 -20.195312 55.984375 -22.375 C 59.097656 -24.5625 61.359375 -27.472656 62.765625 -31.109375 L 85.53125 -31.109375 C 84.414062 -24.515625 81.96875 -18.753906 78.1875 -13.828125 C 74.414062 -8.898438 69.660156 -5.082031 63.921875 -2.375 C 58.179688 0.320312 51.722656 1.671875 44.546875 1.671875 Z M 44.546875 1.671875 "/></g></g></g><g fill="#ffffff" fill-opacity="1"><g transform="translate(112.626029, 265.207268)"><g><path d="M 8.46875 0 L 8.46875 -80.15625 L 31.609375 -80.15625 L 31.609375 -21.421875 L 64.359375 -21.421875 L 64.359375 0 Z M 8.46875 0 "/></g></g></g><g fill="#ffffff" fill-opacity="1"><g transform="translate(266.190504, 187.4953)"><g><path d="M 1.71875 -47.53125 C 1.71875 -41.113281 0.707031 -35.25 -1.3125 -29.9375 C -3.34375 -24.632812 -6.226562 -20.035156 -9.96875 -16.140625 C -13.707031 -12.253906 -18.132812 -9.238281 -23.25 -7.09375 C -28.363281 -4.957031 -33.972656 -3.890625 -40.078125 -3.890625 C -46.179688 -3.890625 -51.789062 -4.957031 -56.90625 -7.09375 C -62.03125 -9.238281 -66.460938 -12.253906 -70.203125 -16.140625 C -73.941406 -20.035156 -76.820312 -24.632812 -78.84375 -29.9375 C -80.863281 -35.25 -81.875 -41.113281 -81.875 -47.53125 C -81.875 -53.9375 -80.863281 -59.789062 -78.84375 -65.09375 C -76.820312 -70.40625 -73.941406 -75.003906 -70.203125 -78.890625 C -66.460938 -82.785156 -62.03125 -85.800781 -56.90625 -87.9375 C -51.789062 -90.082031 -46.179688 -91.15625 -40.078125 -91.15625 C -33.972656 -91.15625 -28.363281 -90.082031 -23.25 -87.9375 C -18.132812 -85.800781 -13.707031 -82.785156 -9.96875 -78.890625 C -6.226562 -75.003906 -3.34375 -70.40625 -1.3125 -65.09375 C 0.707031 -59.789062 1.71875 -53.9375 1.71875 -47.53125 Z M -40.078125 -27.375 C -36.109375 -27.375 -32.578125 -28.226562 -29.484375 -29.9375 C -26.390625 -31.65625 -23.984375 -34.039062 -22.265625 -37.09375 C -20.554688 -40.15625 -19.703125 -43.632812 -19.703125 -47.53125 C -19.703125 -51.5 -20.554688 -54.988281 -22.265625 -58 C -23.984375 -61.019531 -26.390625 -63.382812 -29.484375 -65.09375 C -32.578125 -66.8125 -36.109375 -67.671875 -40.078125 -67.671875 C -44.128906 -67.671875 -47.679688 -66.8125 -50.734375 -65.09375 C -53.785156 -63.382812 -56.171875 -61.019531 -57.890625 -58 C -59.609375 -54.988281 -60.46875 -51.5 -60.46875 -47.53125 C -60.46875 -43.632812 -59.609375 -40.15625 -57.890625 -37.09375 C -56.171875 -34.039062 -53.785156 -31.65625 -50.734375 -29.9375 C -47.679688 -28.226562 -44.128906 -27.375 -40.078125 -27.375 Z M -40.078125 -27.375 "/></g></g></g><g fill="#ffffff" fill-opacity="1"><g transform="translate(266.190504, 98.074547)"><g><path d="M 1.484375 -15.578125 C 1.484375 -11.984375 0.359375 -9.039062 -1.890625 -6.75 C -4.140625 -4.46875 -6.984375 -3.328125 -10.421875 -3.328125 C -13.859375 -3.328125 -16.703125 -4.46875 -18.953125 -6.75 C -21.203125 -9.039062 -22.328125 -11.984375 -22.328125 -15.578125 C -22.328125 -19.160156 -21.203125 -22.078125 -18.953125 -24.328125 C -16.703125 -26.585938 -13.859375 -27.71875 -10.421875 -27.71875 C -6.984375 -27.71875 -4.140625 -26.585938 -1.890625 -24.328125 C 0.359375 -22.078125 1.484375 -19.160156 1.484375 -15.578125 Z M 1.484375 -15.578125 "/></g></g></g><g fill="#ffffff" fill-opacity="1"><g transform="translate(264.985889, 279.340286)"><g><path d="M 1.71875 -45.921875 C 1.71875 -37.597656 -0.0351562 -30.285156 -3.546875 -23.984375 C -7.054688 -17.691406 -11.960938 -12.769531 -18.265625 -9.21875 C -24.566406 -5.664062 -31.835938 -3.890625 -40.078125 -3.890625 C -48.328125 -3.890625 -55.597656 -5.644531 -61.890625 -9.15625 C -68.191406 -12.664062 -73.097656 -17.570312 -76.609375 -23.875 C -80.117188 -30.175781 -81.875 -37.445312 -81.875 -45.6875 C -81.875 -52.863281 -80.5 -59.351562 -77.75 -65.15625 C -75.007812 -70.957031 -71.15625 -75.820312 -66.1875 -79.75 C -61.226562 -83.6875 -55.347656 -86.34375 -48.546875 -87.71875 L -48.546875 -64.359375 C -52.140625 -63.140625 -55.023438 -60.925781 -57.203125 -57.71875 C -59.378906 -54.507812 -60.46875 -50.804688 -60.46875 -46.609375 C -60.46875 -42.867188 -59.609375 -39.546875 -57.890625 -36.640625 C -56.171875 -33.742188 -53.785156 -31.472656 -50.734375 -29.828125 C -47.679688 -28.191406 -44.128906 -27.375 -40.078125 -27.375 C -36.109375 -27.375 -32.578125 -28.171875 -29.484375 -29.765625 C -26.390625 -31.367188 -23.984375 -33.601562 -22.265625 -36.46875 C -20.554688 -39.332031 -19.703125 -42.632812 -19.703125 -46.375 C -19.703125 -50.726562 -20.828125 -54.507812 -23.078125 -57.71875 C -25.328125 -60.925781 -28.320312 -63.253906 -32.0625 -64.703125 L -32.0625 -88.171875 C -25.269531 -87.023438 -19.332031 -84.503906 -14.25 -80.609375 C -9.175781 -76.722656 -5.242188 -71.820312 -2.453125 -65.90625 C 0.328125 -59.988281 1.71875 -53.328125 1.71875 -45.921875 Z M 1.71875 -45.921875 "/></g></g></g><g fill="#ffffff" fill-opacity="1"><g transform="translate(91.94905, 290.431641)"><g><path d="M 15.578125 1.484375 C 11.984375 1.484375 9.039062 0.359375 6.75 -1.890625 C 4.46875 -4.140625 3.328125 -6.984375 3.328125 -10.421875 C 3.328125 -13.859375 4.46875 -16.703125 6.75 -18.953125 C 9.039062 -21.203125 11.984375 -22.328125 15.578125 -22.328125 C 19.160156 -22.328125 22.078125 -21.203125 24.328125 -18.953125 C 26.585938 -16.703125 27.71875 -13.859375 27.71875 -10.421875 C 27.71875 -6.984375 26.585938 -4.140625 24.328125 -1.890625 C 22.078125 0.359375 19.160156 1.484375 15.578125 1.484375 Z M 15.578125 1.484375 "/></g></g></g></svg>